<svg xmlns="http://www.w3.org/2000/svg" width="1120" height="400" viewBox="0 0 1120 400">
  <defs>
    <marker id="arrow" markerWidth="10" markerHeight="10" refX="8" refY="3" orient="auto" markerUnits="strokeWidth">
      <path d="M0,0 L0,6 L9,3 z" fill="#2454A6"/>
    </marker>
    <filter id="shadow" x="-20%" y="-20%" width="140%" height="140%">
      <feDropShadow dx="0" dy="2" stdDeviation="2" flood-color="#000000" flood-opacity="0.15"/>
    </filter>
  </defs>
  <rect width="100%" height="100%" fill="#F8FAFF"/>
  <text x="560" y="45" font-family="Arial, Microsoft YaHei, sans-serif" font-size="24" font-weight="bold" fill="#123E7C" text-anchor="middle">数据结构分类图</text>
<rect x="470" y="80" width="180" height="60" rx="14" fill="#FFFFFF" stroke="#123E7C" stroke-width="2" filter="url(#shadow)"/>
<text x="560" y="118" font-family="Arial, Microsoft YaHei, sans-serif" font-size="22" font-weight="bold" fill="#123E7C" text-anchor="middle">数据结构</text>
<line x1="560" y1="140" x2="310" y2="190" stroke="#2454A6" stroke-width="2" marker-end="url(#arrow)"/>
<line x1="560" y1="140" x2="810" y2="190" stroke="#2454A6" stroke-width="2" marker-end="url(#arrow)"/>
<rect x="190" y="190" width="240" height="60" rx="14" fill="#EAF2FF" stroke="#2454A6" stroke-width="2" filter="url(#shadow)"/>
<text x="310" y="228" font-family="Arial, Microsoft YaHei, sans-serif" font-size="20" font-weight="bold" fill="#123E7C" text-anchor="middle">线性结构</text>
<rect x="690" y="190" width="240" height="60" rx="14" fill="#EAFBF1" stroke="#059669" stroke-width="2" filter="url(#shadow)"/>
<text x="810" y="228" font-family="Arial, Microsoft YaHei, sans-serif" font-size="20" font-weight="bold" fill="#0F6B42" text-anchor="middle">非线性结构</text>
<rect x="115" y="300" width="110" height="45" rx="10" fill="#FFFFFF" stroke="#94A3B8" stroke-width="1" filter="url(#shadow)"/>
<text x="170" y="329" font-family="Arial, Microsoft YaHei, sans-serif" font-size="16" font-weight="normal" fill="#0F172A" text-anchor="middle">数组</text>
<line x1="310" y1="250" x2="170" y2="300" stroke="#94A3B8" stroke-width="1" stroke-dasharray="6,5"/>
<rect x="265" y="300" width="110" height="45" rx="10" fill="#FFFFFF" stroke="#94A3B8" stroke-width="1" filter="url(#shadow)"/>
<text x="320" y="329" font-family="Arial, Microsoft YaHei, sans-serif" font-size="16" font-weight="normal" fill="#0F172A" text-anchor="middle">链表</text>
<line x1="310" y1="250" x2="320" y2="300" stroke="#94A3B8" stroke-width="1" stroke-dasharray="6,5"/>
<rect x="415" y="300" width="110" height="45" rx="10" fill="#FFFFFF" stroke="#94A3B8" stroke-width="1" filter="url(#shadow)"/>
<text x="470" y="329" font-family="Arial, Microsoft YaHei, sans-serif" font-size="16" font-weight="normal" fill="#0F172A" text-anchor="middle">栈</text>
<line x1="310" y1="250" x2="470" y2="300" stroke="#94A3B8" stroke-width="1" stroke-dasharray="6,5"/>
<rect x="565" y="300" width="110" height="45" rx="10" fill="#FFFFFF" stroke="#94A3B8" stroke-width="1" filter="url(#shadow)"/>
<text x="620" y="329" font-family="Arial, Microsoft YaHei, sans-serif" font-size="16" font-weight="normal" fill="#0F172A" text-anchor="middle">队列</text>
<line x1="310" y1="250" x2="620" y2="300" stroke="#94A3B8" stroke-width="1" stroke-dasharray="6,5"/>
<rect x="715" y="300" width="110" height="45" rx="10" fill="#FFFFFF" stroke="#94A3B8" stroke-width="1" filter="url(#shadow)"/>
<text x="770" y="329" font-family="Arial, Microsoft YaHei, sans-serif" font-size="16" font-weight="normal" fill="#0F172A" text-anchor="middle">哈希表</text>
<line x1="310" y1="250" x2="770" y2="300" stroke="#94A3B8" stroke-width="1" stroke-dasharray="6,5"/>
<rect x="715" y="300" width="110" height="45" rx="10" fill="#FFFFFF" stroke="#94A3B8" stroke-width="1" filter="url(#shadow)"/>
<text x="770" y="329" font-family="Arial, Microsoft YaHei, sans-serif" font-size="16" font-weight="normal" fill="#0F172A" text-anchor="middle">树</text>
<line x1="810" y1="250" x2="770" y2="300" stroke="#94A3B8" stroke-width="1" stroke-dasharray="6,5"/>
<rect x="865" y="300" width="110" height="45" rx="10" fill="#FFFFFF" stroke="#94A3B8" stroke-width="1" filter="url(#shadow)"/>
<text x="920" y="329" font-family="Arial, Microsoft YaHei, sans-serif" font-size="16" font-weight="normal" fill="#0F172A" text-anchor="middle">堆</text>
<line x1="810" y1="250" x2="920" y2="300" stroke="#94A3B8" stroke-width="1" stroke-dasharray="6,5"/>
<rect x="1015" y="300" width="110" height="45" rx="10" fill="#FFFFFF" stroke="#94A3B8" stroke-width="1" filter="url(#shadow)"/>
<text x="1070" y="329" font-family="Arial, Microsoft YaHei, sans-serif" font-size="16" font-weight="normal" fill="#0F172A" text-anchor="middle">图</text>
<line x1="810" y1="250" x2="1070" y2="300" stroke="#94A3B8" stroke-width="1" stroke-dasharray="6,5"/>
</svg>