<svg xmlns="http://www.w3.org/2000/svg" width="1200" height="480" viewBox="0 0 1200 480">
  <defs>
    <marker id="arrow" markerWidth="10" markerHeight="10" refX="8" refY="3" orient="auto" markerUnits="strokeWidth">
      <path d="M0,0 L0,6 L9,3 z" fill="#2454A6"/>
    </marker>
    <filter id="shadow" x="-20%" y="-20%" width="140%" height="140%">
      <feDropShadow dx="0" dy="2" stdDeviation="2" flood-color="#000000" flood-opacity="0.15"/>
    </filter>
  </defs>
  <rect width="100%" height="100%" fill="#F8FAFF"/>
  <text x="600" y="45" font-family="Arial, Microsoft YaHei, sans-serif" font-size="24" font-weight="bold" fill="#123E7C" text-anchor="middle">哈希表与链地址法处理冲突</text>
<rect x="140" y="90" width="80" height="45" rx="6" fill="#EAF2FF" stroke="#2454A6" stroke-width="2"/>
<text x="180" y="118" font-family="Arial, Microsoft YaHei, sans-serif" font-size="16" font-weight="bold" fill="#0F172A" text-anchor="middle">0</text>
<rect x="140" y="160" width="80" height="45" rx="6" fill="#EAF2FF" stroke="#2454A6" stroke-width="2"/>
<text x="180" y="188" font-family="Arial, Microsoft YaHei, sans-serif" font-size="16" font-weight="bold" fill="#0F172A" text-anchor="middle">1</text>
<rect x="140" y="230" width="80" height="45" rx="6" fill="#EAF2FF" stroke="#2454A6" stroke-width="2"/>
<text x="180" y="258" font-family="Arial, Microsoft YaHei, sans-serif" font-size="16" font-weight="bold" fill="#0F172A" text-anchor="middle">2</text>
<rect x="140" y="300" width="80" height="45" rx="6" fill="#EAF2FF" stroke="#2454A6" stroke-width="2"/>
<text x="180" y="328" font-family="Arial, Microsoft YaHei, sans-serif" font-size="16" font-weight="bold" fill="#0F172A" text-anchor="middle">3</text>
<rect x="140" y="370" width="80" height="45" rx="6" fill="#EAF2FF" stroke="#2454A6" stroke-width="2"/>
<text x="180" y="398" font-family="Arial, Microsoft YaHei, sans-serif" font-size="16" font-weight="bold" fill="#0F172A" text-anchor="middle">4</text>
<line x1="220" y1="112" x2="280" y2="112" stroke="#2454A6" stroke-width="2" marker-end="url(#arrow)"/>
<rect x="280" y="90" width="75" height="44" rx="8" fill="#FFFFFF" stroke="#94A3B8" stroke-width="1" filter="url(#shadow)"/>
<text x="317" y="117" font-family="Arial, Microsoft YaHei, sans-serif" font-size="15" font-weight="normal" fill="#0F172A" text-anchor="middle">100</text>
<line x1="355" y1="112" x2="380" y2="112" stroke="#94A3B8" stroke-width="1" marker-end="url(#arrow)"/>
<line x1="220" y1="182" x2="280" y2="182" stroke="#2454A6" stroke-width="2" marker-end="url(#arrow)"/>
<rect x="280" y="160" width="75" height="44" rx="8" fill="#FFFFFF" stroke="#94A3B8" stroke-width="1" filter="url(#shadow)"/>
<text x="317" y="187" font-family="Arial, Microsoft YaHei, sans-serif" font-size="15" font-weight="normal" fill="#0F172A" text-anchor="middle">21</text>
<line x1="355" y1="182" x2="380" y2="182" stroke="#94A3B8" stroke-width="1" marker-end="url(#arrow)"/>
<rect x="380" y="160" width="75" height="44" rx="8" fill="#FFFFFF" stroke="#94A3B8" stroke-width="1" filter="url(#shadow)"/>
<text x="417" y="187" font-family="Arial, Microsoft YaHei, sans-serif" font-size="15" font-weight="normal" fill="#0F172A" text-anchor="middle">31</text>
<line x1="455" y1="182" x2="480" y2="182" stroke="#94A3B8" stroke-width="1" marker-end="url(#arrow)"/>
<line x1="220" y1="252" x2="280" y2="252" stroke="#2454A6" stroke-width="2" marker-end="url(#arrow)"/>
<rect x="280" y="230" width="75" height="44" rx="8" fill="#FFFFFF" stroke="#94A3B8" stroke-width="1" filter="url(#shadow)"/>
<text x="317" y="257" font-family="Arial, Microsoft YaHei, sans-serif" font-size="15" font-weight="normal" fill="#0F172A" text-anchor="middle">42</text>
<line x1="355" y1="252" x2="380" y2="252" stroke="#94A3B8" stroke-width="1" marker-end="url(#arrow)"/>
<line x1="220" y1="322" x2="280" y2="322" stroke="#2454A6" stroke-width="2" marker-end="url(#arrow)"/>
<text x="290" y="327" font-family="Arial, Microsoft YaHei, sans-serif" font-size="15" font-weight="normal" fill="#64748B" text-anchor="start">空</text>
<line x1="220" y1="392" x2="280" y2="392" stroke="#2454A6" stroke-width="2" marker-end="url(#arrow)"/>
<rect x="280" y="370" width="75" height="44" rx="8" fill="#FFFFFF" stroke="#94A3B8" stroke-width="1" filter="url(#shadow)"/>
<text x="317" y="397" font-family="Arial, Microsoft YaHei, sans-serif" font-size="15" font-weight="normal" fill="#0F172A" text-anchor="middle">14</text>
<line x1="355" y1="392" x2="380" y2="392" stroke="#94A3B8" stroke-width="1" marker-end="url(#arrow)"/>
<rect x="380" y="370" width="75" height="44" rx="8" fill="#FFFFFF" stroke="#94A3B8" stroke-width="1" filter="url(#shadow)"/>
<text x="417" y="397" font-family="Arial, Microsoft YaHei, sans-serif" font-size="15" font-weight="normal" fill="#0F172A" text-anchor="middle">24</text>
<line x1="455" y1="392" x2="480" y2="392" stroke="#94A3B8" stroke-width="1" marker-end="url(#arrow)"/>
<rect x="480" y="370" width="75" height="44" rx="8" fill="#FFFFFF" stroke="#94A3B8" stroke-width="1" filter="url(#shadow)"/>
<text x="517" y="397" font-family="Arial, Microsoft YaHei, sans-serif" font-size="15" font-weight="normal" fill="#0F172A" text-anchor="middle">34</text>
<line x1="555" y1="392" x2="580" y2="392" stroke="#94A3B8" stroke-width="1" marker-end="url(#arrow)"/>
<rect x="780" y="125" width="230" height="130" rx="14" fill="#FFF4E6" stroke="#D97706" stroke-width="2" filter="url(#shadow)"/>
<text x="895" y="160" font-family="Arial, Microsoft YaHei, sans-serif" font-size="20" font-weight="bold" fill="#B45309" text-anchor="middle">核心思想</text>
<text x="895" y="195" font-family="Arial, Microsoft YaHei, sans-serif" font-size="15" font-weight="normal" fill="#334155" text-anchor="middle">key → hash(key) → index</text>
<text x="895" y="217" font-family="Arial, Microsoft YaHei, sans-serif" font-size="15" font-weight="normal" fill="#334155" text-anchor="middle">冲突时挂到同一链表</text>
<text x="895" y="239" font-family="Arial, Microsoft YaHei, sans-serif" font-size="15" font-weight="normal" fill="#334155" text-anchor="middle">平均查找接近 O(1)</text>
</svg>